<svg xmlns="http://www.w3.org/2000/svg" viewBox="0 0 64 64" role="img" aria-label="MediConnect heart logo">
  <rect width="64" height="64" rx="14" fill="#4f46e5"/>
  <path d="M32 52c-.7 0-1.4-.2-2-.7C18.9 42 11 35.3 11 25.8 11 19 16.4 14 23.1 14c3.8 0 7.4 1.7 9.9 4.6 2.5-2.9 6.1-4.6 9.9-4.6C49.6 14 55 19 55 25.8c0 9.5-7.9 16.2-19 25.5-.6.5-1.3.7-2 .7z" fill="#fff"/>
  <path d="M20 33h8l3-7 4 13 3-6h6" fill="none" stroke="#4f46e5" stroke-width="2.8" stroke-linecap="round" stroke-linejoin="round"/>
</svg>
